{
  "accessors": [
    {
      "bufferView": 1,
      "componentType": 5126,
      "count": 3943,
      "max": [
        5.5608649253845215,
        1.1105560064315796,
        4.247222900390625
      ],
      "min": [
        0.3061549663543701,
        0.0,
        0.0
      ],
      "type": "VEC3"
    },
    {
      "bufferView": 1,
      "byteOffset": 47316,
      "componentType": 5126,
      "count": 3943,
      "max": [
        0.9995856881141663,
        0.9999607801437378,
        0.9843857884407043
      ],
      "min": [
        -0.9925550818443298,
        -1.0,
        -0.8909242153167725
      ],
      "type": "VEC3"
    },
    {
      "bufferView": 0,
      "componentType": 5125,
      "count": 7347,
      "type": "SCALAR"
    },
    {
      "bufferView": 1,
      "byteOffset": 94632,
      "componentType": 5126,
      "count": 11781,
      "max": [
        2.6234819889068604,
        1.0917659997940063,
        3.871922016143799
      ],
      "min": [
        0.0,
        0.00719200074672699,
        0.0003199577331542969
      ],
      "type": "VEC3"
    },
    {
      "bufferView": 1,
      "byteOffset": 236004,
      "componentType": 5126,
      "count": 11781,
      "max": [
        0.9999923706054688,
        1.0,
        0.999294638633728
      ],
      "min": [
        -0.999995231628418,
        -1.0,
        -0.8630495667457581
      ],
      "type": "VEC3"
    },
    {
      "bufferView": 0,
      "byteOffset": 29388,
      "componentType": 5125,
      "count": 70560,
      "type": "SCALAR"
    }
  ],
  "asset": {
    "extras": {
      "author": "Jeremy E. Grayson (https://sketchfab.com/JeremyGrayson)",
      "license": "CC-BY-4.0 (http://creativecommons.org/licenses/by/4.0/)",
      "source": "https://sketchfab.com/3d-models/low-poly-human-hands-all-quads-027173f5759f473b9dfeee724ea0f7f6",
      "title": "Low Poly Human Hands (All Quads)"
    },
    "generator": "Sketchfab-12.63.0",
    "version": "2.0"
  },
  "bufferViews": [
    {
      "buffer": 0,
      "byteLength": 311628,
      "name": "floatBufferViews",
      "target": 34963
    },
    {
      "buffer": 0,
      "byteLength": 377376,
      "byteOffset": 311628,
      "byteStride": 12,
      "name": "floatBufferViews",
      "target": 34962
    }
  ],
  "buffers": [
    {
      "byteLength": 689004,
      "uri": "scene.bin"
    }
  ],
  "materials": [
    {
      "doubleSided": true,
      "name": "Material",
      "pbrMetallicRoughness": {
        "metallicFactor": 0.0,
        "roughnessFactor": 0.6
      }
    }
  ],
  "meshes": [
    {
      "name": "Object_0",
      "primitives": [
        {
          "attributes": {
            "NORMAL": 1,
            "POSITION": 0
          },
          "indices": 2,
          "material": 0,
          "mode": 4
        }
      ]
    },
    {
      "name": "Object_1",
      "primitives": [
        {
          "attributes": {
            "NORMAL": 4,
            "POSITION": 3
          },
          "indices": 5,
          "material": 0,
          "mode": 4
        }
      ]
    }
  ],
  "nodes": [
    {
      "children": [
        1
      ],
      "matrix": [
        1.0,
        0.0,
        0.0,
        0.0,
        0.0,
        2.220446049250313e-16,
        -1.0,
        0.0,
        0.0,
        1.0,
        2.220446049250313e-16,
        0.0,
        0.0,
        0.0,
        0.0,
        1.0
      ],
      "name": "Sketchfab_model"
    },
    {
      "children": [
        2
      ],
      "matrix": [
        1.0,
        0.0,
        0.0,
        0.0,
        0.0,
        1.0,
        0.0,
        0.0,
        0.0,
        0.0,
        1.0,
        0.0,
        -2.7768239974975586,
        0.04503500089049339,
        -1.602916955947876,
        1.0
      ],
      "name": "LowPolyHands.obj.cleaner.gles"
    },
    {
      "children": [
        3,
        4
      ],
      "name": "Object_2"
    },
    {
      "mesh": 0,
      "name": "Object_3"
    },
    {
      "mesh": 1,
      "name": "Object_4"
    }
  ],
  "scene": 0,
  "scenes": [
    {
      "name": "Sketchfab_Scene",
      "nodes": [
        0
      ]
    }
  ]
}
